<?xml version="1.0" encoding="UTF-8" standalone="no"?>
<!-- Created with Inkscape (http://www.inkscape.org/) -->

<svg
   width="17.665627mm"
   height="17.665625mm"
   viewBox="0 0 17.665627 17.665625"
   version="1.1"
   id="svg187"
   xml:space="preserve"
   xmlns="http://www.w3.org/2000/svg"
   xmlns:svg="http://www.w3.org/2000/svg"><defs
     id="defs184" /><g
     id="g11"
     transform="matrix(0.90577212,0.67793791,-0.67793791,0.90577212,32.923398,-189.35516)"><circle
       style="fill:#005f89;fill-opacity:0.811765;stroke:none;stroke-width:0.28335;stroke-linecap:round;stroke-miterlimit:1.3;stroke-dasharray:none;stroke-opacity:0.811765"
       id="path21727-6-9"
       cx="-21.293077"
       cy="175.17351"
       r="7.807107"
       transform="rotate(-36.813535)" /><path
       id="path22-1-9"
       style="font-size:11.0615px;font-family:'Korner Deli NF';-inkscape-font-specification:'Korner Deli NF';display:inline;fill:none;fill-opacity:0.811765;stroke:#ffffff;stroke-width:0.211642;stroke-linecap:round;stroke-linejoin:round;stroke-dasharray:none;stroke-opacity:0.811765"
       d="m 84.807502,150.54656 0.37693,1.52266 1.30151,-0.97446 -0.37543,-1.51666 z m 2.6745,-1.98692 -0.41889,2.10345 1.60938,-1.20442 0.42079,-2.09584 z m -2.03498,4.57044 1.39568,5.63996 1.30277,-0.96733 -0.6297,-2.54436 0.29181,-1.48744 c 0.0845,-0.1915 0.18964,-0.34089 0.32678,-0.44275 0.35142,-0.26103 0.73337,0.0121 0.96341,0.32655 l 1.63655,2.22517 1.42276,-1.05713 -2.05834,-2.78218 c -0.46008,-0.62897 -1.023138,-1.25407 -1.706308,-1.10348 l -0.01718,10e-4 c -0.97627,0.7303 -1.95255,1.4606 -2.92827,2.19165 z" /><g
       id="g22-1-7"
       transform="matrix(-0.0924508,0.10266229,0.10967083,0.07456262,84.894122,129.40956)"
       style="display:inline;fill:none;stroke:#ffffff;stroke-width:1.57085;stroke-dasharray:none;stroke-opacity:0.811765"><path
         id="ellipse17-7-7"
         style="display:inline;fill:none;fill-opacity:0.807843;stroke:#ffffff;stroke-width:1.57086;stroke-linecap:round;stroke-dasharray:none;stroke-opacity:0.811765"
         d="m -160.87291,32.095781 19.84163,5.17328 -37.55398,9.366466 -8.39481,-6.837824 -38.86098,0.332164 c -0.63343,1.818351 -2.54597,3.060653 -4.71322,3.061502 -2.72374,-9.6e-5 -4.93144,-1.937695 -4.93052,-4.32728 0.001,-2.387841 2.20738,-4.323262 4.92913,-4.324032 0.41758,-8.5e-5 0.82305,0.04537 1.21031,0.131027"
         transform="matrix(-0.60677428,-0.79487418,0.79223903,-0.61021088,0,0)" /><ellipse
         style="display:none;fill:none;fill-opacity:0.807843;stroke:#ffffff;stroke-width:1.57086;stroke-linecap:round;stroke-dasharray:none;stroke-opacity:0.811765"
         id="ellipse17-6-2-1"
         cx="-230.55475"
         cy="38.864979"
         transform="matrix(-0.60677428,-0.79487418,0.79223903,-0.61021088,0,0)"
         rx="4.9307194"
         ry="4.3258138" /><g
         id="g18-7-1"
         style="display:none;fill:none;stroke:#ffffff;stroke-width:1.57085;stroke-dasharray:none;stroke-opacity:0.811765"
         transform="translate(34.443214,1.601923)"><path
           id="path18-2-5"
           style="fill:none;stroke:#ffffff;stroke-width:1.57085;stroke-linecap:round;stroke-linejoin:round;stroke-dasharray:none;stroke-opacity:0.811765"
           d="m 87.025127,108.84606 7.795744,-4.28199 6.380409,-6.730281 M 76.33296,80.202368 98.192606,108.65274" /></g><g
         id="g21-2-9"
         style="fill:none;fill-opacity:0.807843;stroke:#ffffff;stroke-width:0.942716;stroke-dasharray:none;stroke-opacity:0.811765"
         transform="matrix(1.7338539,1.8279111,-0.43691893,1.1407622,-60.054239,-251.39756)"><path
           style="color:#000000;display:none;fill:none;fill-opacity:0.807843;stroke:#ffffff;stroke-width:0.942716;stroke-linecap:round;stroke-linejoin:round;stroke-dasharray:none;stroke-opacity:0.811765"
           d="m 160.78711,103.76758 a 0.3121345,0.3121345 0 0 0 -0.39258,0.20312 l -0.81641,2.55469 a 0.3121345,0.3121345 0 0 0 0.20313,0.39258 0.3121345,0.3121345 0 0 0 0.39258,-0.20313 l 0.81445,-2.55468 a 0.3121345,0.3121345 0 0 0 -0.20117,-0.39258 z"
           id="path19-6-7" /><path
           style="color:#000000;display:none;fill:none;fill-opacity:0.807843;stroke:#ffffff;stroke-width:0.942716;stroke-linecap:round;stroke-linejoin:round;stroke-dasharray:none;stroke-opacity:0.811765"
           d="m 137.36133,97.519531 a 0.3121345,0.3121345 0 0 0 -0.39258,0.201172 l -0.81641,2.556637 a 0.3121345,0.3121345 0 0 0 0.20313,0.39063 0.3121345,0.3121345 0 0 0 0.39258,-0.20117 l 0.81445,-2.556644 a 0.3121345,0.3121345 0 0 0 -0.20117,-0.390625 z"
           id="path20-1-7" /><path
           id="path21-0-6"
           style="color:#000000;font-size:11.0615px;font-family:Joystix;-inkscape-font-specification:Joystix;display:none;fill:none;fill-opacity:0.807843;stroke:#ffffff;stroke-width:0.746248;stroke-linecap:round;stroke-linejoin:round;stroke-dasharray:none;stroke-opacity:0.811765"
           d="m -39.709236,198.17822 a 0.21878959,0.36937968 89.773597 0 0 0.198761,-0.12086 l 1.158014,-1.69447 a 0.21878959,0.36937968 89.773597 0 0 -0.203721,-0.28522 0.21878959,0.36937968 89.773597 0 0 -0.480176,0.12152 l -1.157442,1.69579 a 0.21878959,0.36937968 89.773597 0 0 0.203721,0.28522 0.21878959,0.36937968 89.773597 0 0 0.280832,-0.003 z m 2.119093,0.009 a 0.21878959,0.36937968 89.773597 0 0 0.199329,-0.11953 l 1.157431,-1.69581 a 0.21878959,0.36937968 89.773597 0 0 -0.20315,-0.28389 0.21878959,0.36937968 89.773597 0 0 -0.482412,0.12191 l -1.15801,1.69448 a 0.21878959,0.36937968 89.773597 0 0 0.203721,0.28524 0.21878959,0.36937968 89.773597 0 0 0.283068,-0.003 z m 2.119092,0.009 a 0.21878959,0.36937968 89.773597 0 0 0.199318,-0.11953 l 1.157442,-1.6958 a 0.21878959,0.36937968 89.773597 0 0 -0.203149,-0.2839 0.21878959,0.36937968 89.773597 0 0 -0.482412,0.12193 l -1.157442,1.69579 a 0.21878959,0.36937968 89.773597 0 0 0.203152,0.28391 0.21878959,0.36937968 89.773597 0 0 0.28308,-0.003 z m 2.119661,0.0106 a 0.21878959,0.36937968 89.773597 0 0 0.196513,-0.12046 l 1.158011,-1.69447 a 0.21878959,0.36937968 89.773597 0 0 -0.203721,-0.28522 0.21878959,0.36937968 89.773597 0 0 -0.480164,0.12152 l -1.157442,1.6958 a 0.21878959,0.36937968 89.773597 0 0 0.203152,0.28389 0.21878959,0.36937968 89.773597 0 0 0.283663,-9e-4 z m 2.116845,0.009 a 0.21878959,0.36937968 89.773597 0 0 0.199329,-0.11953 l 1.157442,-1.6958 a 0.21878959,0.36937968 89.773597 0 0 -0.203152,-0.28389 0.21878959,0.36937968 89.773597 0 0 -0.480176,0.12151 l -1.160247,1.69482 a 0.21878959,0.36937968 89.773597 0 0 0.206015,0.28488 0.21878959,0.36937968 89.773597 0 0 0.280832,-0.003 z m 2.11909,0.009 a 0.21878959,0.36937968 89.773597 0 0 0.199332,-0.11955 l 1.157442,-1.69579 a 0.21878959,0.36937968 89.773597 0 0 -0.203153,-0.2839 0.21878959,0.36937968 89.773597 0 0 -0.482412,0.12192 l -1.157442,1.6958 a 0.21878959,0.36937968 89.773597 0 0 0.20315,0.2839 0.21878959,0.36937968 89.773597 0 0 0.283068,-0.003 z m 1.836012,0.0106 a 0.21878959,0.36937968 89.773597 0 0 0.480164,-0.12152 l 1.160262,-1.69481 a 0.21878959,0.36937968 89.773597 0 0 -0.206015,-0.28487 0.21878959,0.36937968 89.773597 0 0 -0.480175,0.12152 l -1.157442,1.69579 a 0.21878959,0.36937968 89.773597 0 0 0.203152,0.28391 z m 2.400493,0.008 a 0.21878959,0.36937968 89.773597 0 0 0.198761,-0.12086 l 1.158013,-1.69448 a 0.21878959,0.36937968 89.773597 0 0 -0.203721,-0.28522 0.21878959,0.36937968 89.773597 0 0 -0.480164,0.12152 l -1.157442,1.69581 a 0.21878959,0.36937968 89.773597 0 0 0.203721,0.28522 0.21878959,0.36937968 89.773597 0 0 0.28082,-0.003 z m 2.119093,0.009 a 0.21878959,0.36937968 89.773597 0 0 0.199329,-0.11953 l 1.157442,-1.6958 a 0.21878959,0.36937968 89.773597 0 0 -0.20315,-0.2839 0.21878959,0.36937968 89.773597 0 0 -0.482411,0.12193 l -1.158011,1.69447 a 0.21878959,0.36937968 89.773597 0 0 0.203721,0.28522 0.21878959,0.36937968 89.773597 0 0 0.28308,-0.003 z m 1.836012,0.0106 a 0.21878959,0.36937968 89.773597 0 0 0.482408,-0.12191 l 1.157443,-1.69581 a 0.21878959,0.36937968 89.773597 0 0 -0.203152,-0.28389 0.21878959,0.36937968 89.773597 0 0 -0.482412,0.12192 l -1.157443,1.6958 a 0.21878959,0.36937968 89.773597 0 0 0.203151,0.28389 z m 2.402741,0.008 a 0.21878959,0.36937968 89.773597 0 0 0.196524,-0.12046 l 1.157999,-1.69448 a 0.21878959,0.36937968 89.773597 0 0 -0.203721,-0.28522 0.21878959,0.36937968 89.773597 0 0 -0.480175,0.12152 l -1.157442,1.69581 a 0.21878959,0.36937968 89.773597 0 0 0.203151,0.28389 0.21878959,0.36937968 89.773597 0 0 0.283648,-9e-4 z m 2.116855,0.009 a 0.21878959,0.36937968 89.773597 0 0 0.199319,-0.11953 l 1.157442,-1.69581 a 0.21878959,0.36937968 89.773597 0 0 -0.203153,-0.28389 0.21878959,0.36937968 89.773597 0 0 -0.480175,0.12152 l -1.160248,1.69482 a 0.21878959,0.36937968 89.773597 0 0 0.206014,0.28487 0.21878959,0.36937968 89.773597 0 0 0.280844,-0.003 z m 2.11908,0.009 a 0.21878959,0.36937968 89.773597 0 0 0.19933,-0.11954 l 1.157443,-1.6958 a 0.21878959,0.36937968 89.773597 0 0 -0.203152,-0.2839 0.21878959,0.36937968 89.773597 0 0 -0.482412,0.12193 l -1.157443,1.69579 a 0.21878959,0.36937968 89.773597 0 0 0.203152,0.2839 0.21878959,0.36937968 89.773597 0 0 0.283079,-0.003 z"
           transform="matrix(-0.81807387,-0.21175575,0.46532186,-1.8303103,35.163613,456.53058)" /></g></g></g></svg>
